<?xml version="1.0" encoding="UTF-8"?>
<svg id="Layer_1" xmlns="http://www.w3.org/2000/svg" version="1.1" viewBox="0 0 100 125">
  <!-- Generator: Adobe Illustrator 29.8.1, SVG Export Plug-In . SVG Version: 2.1.1 Build 2)  -->
  <defs>
    <style>
      .st0 {
        fill: #fff;
      }

      .st1 {
        fill: red;
      }
    </style>
  </defs>
  <path class="st0" d="M91.06,31.76c.11-.72-.31-1.42-1-1.66-13.05-5.73-26.07-11.51-39.06-17.36-.59-.3-1.3-.3-1.89,0-13.07,5.81-26.14,11.61-39.2,17.39-.66.17-1.08.81-1,1.48.09,8.9-.01,17.81.09,26.71.06,12.26,4.05,24.18,11.4,34,7.1,9.56,16.18,16.41,27.69,19.87,1.24.39,2.57.39,3.81,0,10.61-3.18,19.94-9.64,26.64-18.47,8.14-10.23,12.55-22.93,12.5-36v-11.54c-.04-4.8-.04-9.61.02-14.42ZM84,48.98v9.56c.05,10.83-3.6,21.36-10.34,29.84-5.55,7.33-13.29,12.7-22.09,15.34-1.03.32-2.13.32-3.16,0-9.26-2.81-17.33-8.61-22.95-16.49-6.09-8.14-9.41-18.02-9.46-28.19-.08-7.38,0-14.76,0-22.14-.07-.55.28-1.07.81-1.22,10.79-4.78,21.6-9.59,32.42-14.43.49-.25,1.08-.25,1.57,0,10.8,4.84,21.59,9.64,32.38,14.39.57.2.92.78.82,1.38v11.96Z"/>
  <path class="st1" d="M64,47.65c-.57-.55-1.48-.52-2.02.05-.05.06-.1.12-.15.18-.37.37-.7.78-1.06,1.16l-12.19,13-4,4.23-.33-.23-4.25-3.35c-.76-.6-1.52-1.19-2.3-1.76-.45-.4-1.12-.46-1.63-.14-.59.4-1.15.84-1.66,1.34-.36.37-.42.94-.15,1.38.19.37.4.73.63,1.07l8.51,12.39c.4.73,1.31.99,2.04.59.25-.14.46-.34.59-.59,6.19-8.31,12.39-16.6,18.58-24.89.4-.54.76-1.12,1.11-1.7.33-.47.25-1.11-.18-1.48-.48-.46-.99-.88-1.54-1.25Z"/>
</svg>