<?xml version="1.0" encoding="UTF-8"?>
<svg xmlns="http://www.w3.org/2000/svg" viewBox="0 0 100 100">
  <style>
    .st0 { fill: #ffffff; }
  </style>
  <!-- Left chain link -->
  <path class="st0" d="M38,42h-8c-8.84,0-16,7.16-16,16s7.16,16,16,16h8c3.63,0,6.99-1.21,9.67-3.24l-5.59-5.59
    C40.83,66.37,39.45,67,38,67h-8c-4.97,0-9-4.03-9-9s4.03-9,9-9h8c1.45,0,2.83.63,4.08,1.83l5.59-5.59
    C44.99,43.21,41.63,42,38,42z"/>
  <!-- Right chain link -->
  <path class="st0" d="M70,42h-8c-3.63,0-6.99,1.21-9.67,3.24l5.59,5.59C59.17,49.63,60.55,49,62,49h8
    c4.97,0,9,4.03,9,9s-4.03,9-9,9h-8c-1.45,0-2.83-.63-4.08-1.83l-5.59,5.59C55.01,72.79,58.37,74,62,74h8
    c8.84,0,16-7.16,16-16S78.84,42,70,42z"/>
  <!-- Center bar -->
  <rect class="st0" x="38" y="54.5" width="24" height="7" rx="3.5"/>
</svg>
