<?xml version="1.0" encoding="UTF-8"?>
<svg xmlns="http://www.w3.org/2000/svg" version="1.1" xmlns:xlink="http://www.w3.org/1999/xlink" viewBox="0 0 704.13 291.16">
  <!-- Generator: Adobe Illustrator 29.8.1, SVG Export Plug-In . SVG Version: 2.1.1 Build 2)  -->
  <defs>
    <style>
      .st0 {
        fill: #e11a27;
      }

      .st1 {
        fill: #1382bf;
      }

      .st2 {
        fill: #fff;
      }

      .st3 {
        fill: url(#linear-gradient1);
      }

      .st4 {
        fill: #f4ef18;
      }

      .st5 {
        fill: #999;
      }

      .st6 {
        display: none;
      }

      .st7 {
        fill: #ccc;
      }

      .st8 {
        fill: url(#linear-gradient);
      }
    </style>
    <linearGradient id="linear-gradient" x1="572.92" y1="89.65" x2="592.08" y2="89.65" gradientUnits="userSpaceOnUse">
      <stop offset="0" stop-color="#fff"/>
      <stop offset="1" stop-color="#fff"/>
    </linearGradient>
    <linearGradient id="linear-gradient1" x1="578.67" x2="587.32" xlink:href="#linear-gradient"/>
  </defs>
  <g id="CMYK_Colours" class="st6">
    <rect class="st0" y="-112" width="62.32" height="100.68"/>
    <rect class="st1" x="72.32" y="-112" width="62.32" height="100.68"/>
    <rect x="144.63" y="-112" width="62.32" height="100.68"/>
    <rect class="st2" x="216.95" y="-112" width="62.32" height="100.68"/>
    <rect class="st5" x="289.26" y="-112" width="62.32" height="100.68"/>
    <rect class="st7" x="361.58" y="-112" width="62.32" height="100.68"/>
    <rect class="st4" x="433.9" y="-112" width="62.32" height="100.68"/>
  </g>
  <g id="LOGO">
    <g>
      <path class="st8" d="M577.7,97.93c1.48.85,3.08,1.27,4.81,1.27s3.31-.43,4.79-1.28c1.48-.85,2.65-2.02,3.5-3.49.85-1.47,1.28-3.06,1.28-4.78s-.43-3.3-1.29-4.77c-.86-1.47-2.03-2.64-3.51-3.5-1.48-.86-3.07-1.29-4.78-1.29s-3.31.43-4.79,1.28-2.65,2.02-3.51,3.49c-.86,1.48-1.29,3.07-1.29,4.79s.43,3.31,1.28,4.79c.85,1.48,2.02,2.64,3.5,3.49ZM576.87,84.02c1.56-1.56,3.44-2.34,5.64-2.34s4.06.78,5.62,2.34c1.56,1.56,2.34,3.44,2.34,5.64s-.78,4.08-2.33,5.63c-1.56,1.56-3.43,2.33-5.63,2.33s-4.09-.78-5.64-2.33c-1.55-1.55-2.33-3.43-2.33-5.64s.78-4.08,2.34-5.64Z"/>
      <path class="st3" d="M580.33,90.42h.99c.63,0,1.14.17,1.52.51.38.34.9,1.09,1.55,2.25l.9,1.61h2.03l-1.24-2c-.52-.84-.96-1.44-1.3-1.81-.34-.37-.71-.63-1.1-.79.86-.07,1.57-.37,2.12-.91s.82-1.21.82-1.99c0-.52-.16-1.02-.47-1.48-.31-.46-.73-.8-1.25-1-.52-.2-1.41-.3-2.67-.3h-3.56v10.28h1.66v-4.38ZM580.33,85.9h1.9c.97,0,1.65.11,2.04.34.38.23.58.63.58,1.19s-.2.94-.6,1.19c-.4.25-1.03.37-1.89.37h-2.03v-3.09Z"/>
    </g>
    <path class="st1" d="M137.31,107.35c-11.68,0-23.23,9.05-26.29,20.6l-9.67,31.55c-1.69,6.38-.52,12.78,3.2,17.55,3.58,4.56,9.18,6.94,15.39,6.94h228.44c-.21-4.51.34-9.35,1.82-14.05l17.49-56.76c.62-2,1.43-3.94,2.32-5.84h-232.7Z"/>
    <path class="st1" d="M568.57,107.35c.21,4.57-.13,8.96-1.63,13.74l-16.76,55.51c-.8,2.54-1.91,5.01-3.11,7.4h16.64c11.94,0,26.67-9.49,29.8-21.29l9.24-30.16c1.72-6.52.54-13.03-3.26-17.88-3.64-4.64-9.36-7.31-15.7-7.31h-15.24Z"/>
    <g>
      <path class="st0" d="M462.64,117.32h-54.58c-.21,0-.4.14-.47.34l-17.37,55.54c-.1.32.14.64.47.64h26.03c.21,0,.4-.14.47-.34l4.77-15.69c.1-.32-.14-.64-.47-.64h-11.48c-.33,0-.57-.32-.47-.64l7.07-21.92c.06-.2.25-.34.47-.34h39.95c.33,0,.57.32.47.64l-11.87,38.62c-4.92,15.65-20.34,28.46-36,28.46h-28.45c-15.65,0-24.43-12.81-19.52-28.46l17.89-56.92c4.92-15.65,21.46-27.35,37.1-27.35h54.64c.33,0,.57.32.47.64l-8.65,27.09c-.06.2-.25.34-.47.34Z"/>
      <path class="st0" d="M537.17,89.18h-26.18c-16.11,0-33.06,11.88-38.11,27.99l-17.04,55.41c-5.06,16.1,3.62,29.29,19.73,29.29h26.19c16.1,0,33.85-13.27,38.92-29.37l16.83-55.19c5.05-16.11-4.22-28.13-20.32-28.13ZM511.26,173.9h-26.78c-.33,0-.57-.32-.47-.64l17.41-55.66c.06-.2.25-.34.47-.34h26.57c.33,0,.57.32.47.64l-17.2,55.66c-.06.2-.25.34-.47.34Z"/>
    </g>
    <g>
      <path class="st2" d="M271.42,168.2c-.06.21-.26.35-.47.35l-10.48.02c-.33,0-.57-.32-.47-.64l3.13-10.15c.1-.31-.13-.61-.45-.63-5.88-.34-9.22-5.46-7.31-11.53l6.88-22.51c.06-.2.25-.34.47-.34h10.39c.33,0,.57.32.47.63-.96,3.05-6.08,19.79-6.79,22.35h11.56c.74-2.49,6.2-20.21,6.97-22.64.06-.21.26-.35.47-.35h10.25c.33,0,.57.32.47.64l-6.85,22.21c-1.94,6.17-8.29,11.27-14.48,11.45-.21,0-.39.14-.45.34l-3.3,10.8Z"/>
      <path class="st2" d="M327.29,134.1c-6.29,0-13.04,5.15-15.02,11.43l-6.81,22.45c-.1.32.14.64.47.64h10.41c.21,0,.4-.13.47-.34.76-2.41,5.78-18.69,7.02-22.51,2.21,0,8.22,0,11.31-.02-1.52,4.84-5.84,19.19-6.8,22.24-.1.32.14.63.47.63h10.64c.21,0,.4-.14.47-.34l6.91-22.74c1.91-6.07-1.31-11.07-7.19-11.41-.32-.02-12.34-.02-12.34-.02Z"/>
      <path class="st2" d="M244.67,122.75h-11.83c-6.29,0-13.04,5.15-15.02,11.43l-10.3,33.66c-.1.32.14.64.47.64h10.41c.21,0,.4-.14.47-.34l4.26-13.36c.07-.2.25-.33.46-.33h10.6c.32,0,.56.31.47.62l-4.01,12.77c-.1.32.14.63.47.63h10.48c.21.01.4-.13.47-.33l10.44-33.96c1.98-6.28-1.55-11.43-7.84-11.43ZM237.41,145.73h-11.48l3.54-11.69h11.56l-3.61,11.69Z"/>
      <path class="st2" d="M163.78,122.75h-22.81c-.21,0-.4.14-.47.34l-13.75,44.75c-.1.32.14.64.47.64h10.39c.22,0,.41-.14.47-.35l3.37-10.75c.06-.21.26-.35.47-.35h11.07c6.29,0,13.05-5.14,15.02-11.42l3.59-11.43c1.98-6.28-1.55-11.43-7.84-11.43ZM156.65,145.76h-11.48l3.54-11.69h11.56l-3.61,11.69Z"/>
      <polygon class="st2" points="312.31 136.17 299.18 136.17 303.23 122.81 316.44 122.81 312.31 136.17"/>
      <path class="st2" d="M166.67,168.62l14.13-45.55c.06-.21.26-.35.47-.35h10.44c.33,0,.57.32.47.64l-10.07,33.09c-.1.32.14.64.47.64h10.04c.22,0,.41-.14.47-.34l3.43-10.73c.07-.21.26-.34.47-.34h10.44c.33,0,.57.32.47.64l-6.9,21.96c-.06.21-.26.35-.47.35h-34.05.18Z"/>
    </g>
  </g>
</svg>