<?xml version="1.0" encoding="UTF-8"?>
<svg id="Layer_1" xmlns="http://www.w3.org/2000/svg" version="1.1" viewBox="0 0 800 800">
  <!-- Generator: Adobe Illustrator 29.8.1, SVG Export Plug-In . SVG Version: 2.1.1 Build 2)  -->
  <defs>
    <style>
      .st0 {
        fill: #fff;
      }
    </style>
  </defs>
  <path class="st0" d="M676.66,66.66H123.34c-31.17,0-56.67,25.5-56.67,56.67v553.33c0,31.17,25.5,56.67,56.67,56.67h553.33c31.17,0,56.67-25.5,56.67-56.67V123.33c0-31.17-25.5-56.67-56.67-56.67ZM289.27,362.02c-12.3-71.3,36.87-46.77,88.73-48.2,51.83-1.4,109-29.47,99.07,43.1-5.37,39.2-44.03,59.43-95.87,60.87-51.83,1.4-85.7-19.43-91.93-55.77ZM356.7,528.39c-20.1-53.27,21.2-44.23,59.37-52.33,38.13-8.17,75.83-26.17,79.7,31.07,2.13,30.93-24.23,43.57-62.37,51.7-38.17,8.17-66.4-3.3-76.7-30.43ZM501.8,654.32c-4,24.53-27.5,36.77-58.57,37.03-31,.23-50.8-13.27-53.8-36.17-5.9-44.93,23-28.9,54.07-29.13,31.03-.27,65.77-17.17,58.3,28.27ZM496.63,203.96c-16.77,48.8-68.13,53.33-125.07,44.4-67.2-10.5-100.9-37.53-102.5-86.2-2.57-78.2,48.33-50.8,115.53-40.23,67.17,10.57,144.7-13.1,112.03,82.03Z"/>
</svg>